# xmcd
#
# Track frame offsets: 
#        150
#        22620
#        55736
#        75696
#        104606
#        132639
#        150213
#        172401
#        193159
#
# Disc length: 2882 seconds
#
# Revision: 0
# Processed by: cddbd v1.5.2PL0 Copyright (c) Steve Scherf et al.
# Submitted via: ExactAudioCopy v0.95a5
#
DISCID=710b4009
DTITLE=Khalif Waikin' Walter - Let Me Say That Again
DYEAR=2007
DGENRE=Blues
TTITLE0=Keep On Lovin' Me Baby
TTITLE1=My Baby Calls Me Coffee
TTITLE2=Crosscut Saw
TTITLE3=It's My Own Fault
TTITLE4=Heart Fixin' Business
TTITLE5=Connie-Lee
TTITLE6=Hideaway
TTITLE7=You Don't Have To Go
TTITLE8=I'm A King Bee
EXTD=
EXTT0=
EXTT1=
EXTT2=
EXTT3=
EXTT4=
EXTT5=
EXTT6=
EXTT7=
EXTT8=
PLAYORDER=
